<?xml version="1.0" standalone="no"?>
<!DOCTYPE svg PUBLIC "-//W3C//DTD SVG 20010904//EN"
 "http://www.w3.org/TR/2001/REC-SVG-20010904/DTD/svg10.dtd">
<svg version="1.0" xmlns="http://www.w3.org/2000/svg"
 width="636.000000pt" height="638.000000pt" viewBox="0 0 636.000000 638.000000"
 preserveAspectRatio="xMidYMid meet">

<g transform="translate(0.000000,638.000000) scale(0.100000,-0.100000)"
fill="#000000" stroke="none">
<path d="M1587 6373 c876 -2 2310 -2 3185 0 876 1 160 2 -1592 2 -1752 0
-2468 -1 -1593 -2z"/>
<path d="M3315 5704 c60 -138 85 -269 85 -448 0 -280 -76 -449 -226 -505 -74
-28 -199 -37 -290 -22 -75 13 -194 65 -244 107 -17 15 -34 23 -38 19 -4 -4 8
-20 26 -35 l34 -28 -4 -224 c-3 -205 -5 -227 -26 -273 -12 -27 -37 -62 -55
-77 -25 -22 -28 -28 -14 -28 28 0 73 53 91 108 26 75 39 224 31 360 -4 67 -5
122 -2 122 3 0 28 -11 56 -25 74 -38 189 -58 288 -51 45 3 88 8 96 11 11 5 15
-11 21 -81 11 -151 76 -295 170 -380 26 -24 58 -44 70 -44 19 1 18 3 -9 22
-57 41 -115 108 -146 169 -38 76 -69 195 -69 266 0 49 2 54 28 64 77 29 144
102 182 200 70 177 66 500 -8 705 -15 43 -34 80 -42 82 -10 4 -11 0 -5 -14z"/>
<path d="M3157 5604 c-15 -16 -5 -19 53 -19 36 0 59 4 57 10 -4 12 -99 19
-110 9z"/>
<path d="M2718 5538 c-16 -5 -28 -14 -28 -20 0 -6 8 -7 17 -4 9 4 36 10 60 13
24 3 43 10 43 14 0 12 -58 10 -92 -3z"/>
<path d="M3187 5473 c-15 -15 -7 -80 13 -98 19 -17 21 -17 40 0 36 32 19 105
-24 105 -12 0 -26 -3 -29 -7z"/>
<path d="M2748 5405 c-17 -38 0 -79 34 -83 22 -3 29 2 34 24 16 64 -42 116
-68 59z"/>
<path d="M3020 5389 c0 -11 16 -53 35 -92 42 -85 44 -113 10 -129 -31 -14 -33
-32 -2 -22 59 18 63 47 21 133 -19 39 -37 84 -40 100 -7 35 -24 42 -24 10z"/>
<path d="M3121 4998 c-31 -28 -39 -30 -83 -25 -53 7 -66 -7 -17 -18 45 -10 93
2 118 29 35 38 20 49 -18 14z"/>
<path d="M3260 3224 c-14 -2 -293 -8 -620 -14 -923 -17 -974 -22 -1017 -86
-20 -31 -22 -160 -15 -944 l3 -355 -23 -9 c-68 -27 -228 -109 -228 -117 0 -14
3 -13 98 35 146 73 180 81 327 80 142 -1 230 -19 266 -55 33 -33 11 -44 -57
-30 -68 13 -161 15 -168 2 -3 -4 36 -11 87 -14 95 -5 203 -34 218 -59 15 -23
10 -56 -10 -63 -10 -3 -45 1 -77 10 -82 22 -199 31 -208 16 -5 -8 8 -11 41
-11 91 0 223 -42 223 -70 0 -23 -79 -34 -158 -22 -91 14 -166 5 -268 -34 -148
-55 -258 -114 -215 -114 6 0 42 16 81 35 39 20 75 33 80 30 6 -3 10 -41 10
-83 1 -99 17 -268 30 -308 24 -72 95 -110 226 -119 192 -14 1921 17 2494 45
230 11 271 19 312 61 18 17 40 29 55 29 42 0 21 10 -99 50 -62 20 -133 47
-158 60 -84 43 -193 123 -266 194 -71 70 -97 117 -76 138 14 14 104 -34 170
-90 28 -24 52 -40 52 -34 0 5 -30 43 -67 84 -38 41 -74 87 -82 102 -13 24 -13
28 2 44 16 16 20 15 65 -8 25 -14 75 -49 109 -78 67 -56 88 -50 27 9 -50 47
-86 112 -82 146 6 50 32 38 124 -57 90 -92 144 -130 244 -168 79 -31 201 -55
214 -42 7 7 4 10 -8 10 -42 0 -158 35 -165 49 -5 9 -11 313 -15 676 -6 640
-16 918 -36 980 -14 44 -54 82 -97 94 -34 10 -1270 14 -1343 5z m1133 -95 c56
-15 87 -63 98 -150 8 -66 29 -942 29 -1248 l0 -134 -69 66 c-38 37 -76 67 -85
67 -18 0 -56 -34 -56 -50 0 -6 7 -26 14 -45 8 -19 14 -35 12 -35 -2 0 -25 9
-50 21 -54 23 -71 20 -87 -15 -10 -20 -8 -31 9 -60 l21 -35 -46 6 c-116 16
-76 -85 86 -221 48 -40 114 -88 147 -106 83 -47 85 -49 73 -71 -13 -24 -53
-45 -106 -53 -231 -35 -2414 -74 -2530 -45 -63 16 -105 61 -121 130 -7 30 -16
115 -19 190 l-6 136 72 18 c43 10 86 15 109 11 92 -16 152 -18 185 -7 35 12
55 40 43 60 -4 5 2 12 12 15 11 4 24 17 30 30 13 30 -2 63 -43 91 -18 12 -29
27 -27 37 5 24 -42 65 -87 78 -53 15 -231 32 -267 25 l-31 -5 -7 157 c-3 87
-7 353 -7 591 0 470 -1 460 54 497 37 24 244 33 1152 50 462 8 881 17 930 19
151 6 529 -4 568 -15z m278 -1024 c8 -176 6 -185 -36 -185 l-32 0 -6 141 c-7
162 -1 192 41 187 l27 -3 6 -140z"/>
<path d="M2568 2913 c-8 -10 -28 -39 -44 -65 -22 -37 -35 -48 -54 -48 -14 0
-36 -7 -48 -16 l-23 -16 22 -35 22 -35 -20 -36 c-11 -21 -29 -61 -39 -90 -15
-45 -16 -55 -5 -62 17 -10 42 -1 128 42 l62 31 35 -31 c49 -43 93 -65 102 -51
3 6 3 46 0 89 l-7 78 34 21 c18 11 42 30 53 42 18 21 18 21 -1 35 -10 8 -28
14 -39 14 -41 0 -96 21 -96 36 0 27 -42 114 -55 114 -6 0 -19 -8 -27 -17z m58
-87 c6 -26 6 -26 -51 -26 l-57 0 23 38 c12 20 29 45 38 55 15 18 16 18 28 -11
6 -16 15 -41 19 -56z m-153 -52 c6 -7 -14 -44 -24 -44 -4 0 -10 8 -13 17 -8
21 21 43 37 27z m163 -2 c6 -4 14 -20 18 -37 4 -16 9 -37 12 -46 3 -12 -11
-27 -46 -49 l-51 -33 -50 49 c-27 26 -49 51 -49 54 0 3 9 20 20 38 19 30 23
32 77 32 32 0 63 -4 69 -8z m103 -8 c40 -8 39 -17 -4 -50 -40 -30 -51 -26 -61
24 -7 35 1 39 65 26z m-237 -121 c21 -20 38 -41 38 -45 0 -10 -115 -68 -135
-68 -8 0 -15 2 -15 5 0 11 63 145 68 145 4 0 23 -17 44 -37z m183 -45 c3 -24
9 -51 11 -60 3 -10 0 -18 -6 -18 -13 0 -99 62 -100 72 0 8 61 46 77 47 6 1 14
-18 18 -41z"/>
<path d="M4078 2902 c-13 -16 -30 -43 -37 -60 -10 -23 -21 -32 -49 -37 -43 -8
-72 -22 -72 -35 0 -4 12 -23 27 -40 25 -30 26 -35 15 -76 -17 -64 -15 -111 5
-118 10 -4 43 6 79 24 l62 30 59 -35 c100 -60 134 -41 108 60 -9 32 -18 62
-21 67 -3 5 8 24 25 44 45 51 42 58 -35 78 -35 9 -50 21 -81 65 -21 30 -43 56
-49 58 -6 2 -23 -9 -36 -25z m70 -41 c12 -21 22 -41 22 -45 0 -3 -27 -6 -60
-6 -33 0 -60 2 -60 5 0 15 52 85 63 85 7 0 23 -17 35 -39z m56 -112 c13 -33
14 -44 4 -56 -15 -18 -94 -73 -105 -73 -4 0 -29 19 -55 43 l-48 42 20 43 19
42 74 0 75 0 16 -41z m-206 0 c-10 -29 -11 -29 -29 -13 -28 25 -24 44 10 44
29 0 30 -1 19 -31z m286 22 c3 -4 -5 -18 -18 -30 l-24 -22 -15 30 -15 31 33 0
c19 0 36 -4 39 -9z m-34 -139 c13 -48 13 -92 0 -92 -15 0 -107 48 -114 59 -7
10 85 82 96 75 4 -3 12 -21 18 -42z m-209 11 c21 -16 39 -31 39 -35 0 -10 -75
-48 -95 -48 -9 0 -15 9 -15 24 0 25 19 86 27 86 3 0 22 -12 44 -27z"/>
<path d="M3088 2856 c-33 -53 -34 -54 -91 -60 -102 -12 -107 -20 -47 -81 l40
-40 -25 -60 c-41 -101 -35 -107 64 -60 l72 35 67 -40 c82 -50 102 -51 102 -7
0 17 -7 57 -15 87 l-15 55 40 39 c60 58 52 76 -35 76 -43 0 -44 1 -69 55 -14
31 -31 55 -40 55 -8 0 -30 -24 -48 -54z m68 -1 c7 -19 14 -39 14 -45 0 -11
-76 -14 -83 -2 -5 7 39 82 49 82 3 0 12 -16 20 -35z m-116 -80 c0 -11 -34 -75
-41 -75 -4 0 -22 14 -40 32 l-34 32 35 7 c45 8 80 10 80 4z m159 -32 c15 -53
17 -49 -44 -89 l-54 -36 -41 32 c-23 18 -39 35 -38 39 2 3 12 25 22 49 l18 42
64 0 63 0 10 -37z m96 28 c7 -13 -54 -56 -65 -45 -4 5 -11 19 -15 32 -6 20 -3
22 34 22 22 0 42 -4 46 -9z m-64 -128 c15 -39 23 -113 13 -113 -13 0 -114 69
-114 78 1 8 71 60 83 61 4 1 12 -11 18 -26z m-191 -5 c17 -12 30 -27 30 -33 0
-10 -80 -55 -99 -55 -5 0 1 25 12 55 12 30 23 55 25 55 2 0 16 -10 32 -22z"/>
<path d="M2014 2853 c-29 -44 -37 -49 -94 -63 -35 -8 -65 -20 -67 -27 -3 -6
12 -28 33 -47 l37 -35 -17 -59 c-31 -113 -19 -125 76 -68 l57 35 38 -28 c61
-44 130 -81 137 -74 12 12 6 55 -19 130 l-26 76 37 38 c40 41 41 68 2 70 -13
1 -38 2 -57 4 -19 1 -36 6 -39 13 -6 20 -47 75 -57 79 -6 2 -24 -18 -41 -44z
m62 -8 c20 -31 11 -45 -32 -45 -39 0 -39 1 -19 40 19 36 30 37 51 5z m-116
-81 c0 -13 -16 -51 -26 -63 -7 -7 -54 42 -54 55 0 7 15 15 33 17 17 2 35 5 40
5 4 1 7 -5 7 -14z m167 -21 l15 -38 -48 -42 c-27 -24 -53 -43 -59 -43 -5 1
-27 15 -47 33 l-37 32 21 48 21 47 59 0 c59 0 59 0 75 -37z m83 29 c0 -5 -11
-19 -24 -31 l-24 -23 -16 31 -17 31 41 0 c22 0 40 -4 40 -8z m-31 -169 c21
-62 26 -93 15 -93 -7 0 -92 57 -117 78 -17 15 -15 18 25 53 24 21 46 34 50 31
3 -4 16 -35 27 -69z m-186 24 c9 -8 17 -19 17 -25 0 -10 -78 -62 -93 -62 -12
0 -7 38 9 80 17 42 21 42 67 7z"/>
<path d="M3543 2848 c-21 -32 -38 -45 -66 -51 -48 -12 -55 -28 -29 -71 19 -32
19 -38 7 -79 -12 -41 -19 -85 -16 -114 2 -23 45 -14 104 22 l57 35 63 -35 c89
-49 101 -47 95 13 -3 27 -12 63 -21 80 -15 32 -15 32 24 73 21 22 39 47 39 55
0 19 -41 34 -92 34 -34 0 -46 6 -77 40 -20 22 -42 40 -48 40 -6 0 -24 -19 -40
-42z m67 3 c17 -32 12 -41 -25 -41 -39 0 -42 6 -19 38 19 27 30 28 44 3z m60
-112 l24 -51 -39 -33 c-22 -19 -45 -34 -51 -35 -6 0 -32 17 -58 37 -40 31 -46
40 -41 62 14 57 32 71 89 71 l53 0 23 -51z m107 37 c7 -7 -45 -66 -59 -66 -4
0 -17 19 -29 41 l-21 42 51 -5 c28 -3 54 -8 58 -12z m-280 -26 c-12 -32 -24
-34 -41 -7 -12 19 5 37 36 37 14 0 15 -4 5 -30z m57 -124 l29 -24 -29 -18
c-66 -40 -74 -44 -89 -44 -13 0 -15 6 -10 33 4 17 13 47 21 65 15 36 21 35 78
-12z m177 -21 c11 -31 18 -59 15 -62 -8 -8 -116 48 -116 60 1 11 71 67 78 62
1 -1 12 -28 23 -60z"/>
<path d="M2405 2299 c-258 -7 -291 -10 -302 -25 -16 -22 -18 -510 -3 -534 8
-13 128 -15 979 -15 775 0 973 3 983 13 9 9 13 69 12 245 0 259 -7 308 -44
318 -34 9 -1266 8 -1625 -2z m1634 -25 c13 -13 23 -270 15 -389 l-9 -130 -125
-7 c-158 -9 -1559 -9 -1700 0 l-105 7 -3 249 c-1 147 2 254 7 259 14 14 775
26 1380 21 294 -3 537 -7 540 -10z"/>
<path d="M3980 2181 c0 -22 5 -43 10 -46 6 -4 10 10 10 34 0 22 -4 43 -10 46
-6 4 -10 -10 -10 -34z"/>
<path d="M2930 1543 c-169 -3 -197 -5 -207 -20 -18 -24 -18 -273 0 -297 11
-16 40 -17 380 -14 314 3 369 5 377 18 5 8 10 75 10 148 0 119 -2 134 -20 152
-22 22 23 21 -540 13z m534 -60 c9 -58 7 -216 -4 -233 -8 -13 -62 -15 -363
-18 l-354 -3 -6 38 c-9 49 -9 182 -1 222 l7 31 357 0 357 0 7 -37z"/>
</g>
</svg>
